<?xml version="1.0" encoding="UTF-8"?>
<!DOCTYPE svg PUBLIC "-//W3C//DTD SVG 1.1//EN" "http://www.w3.org/Graphics/SVG/1.1/DTD/svg11.dtd">
<!-- Creator: CorelDRAW X5 -->
<svg xmlns="http://www.w3.org/2000/svg" xml:space="preserve" width="1427px" height="241px" style="shape-rendering:geometricPrecision; text-rendering:geometricPrecision; image-rendering:optimizeQuality; fill-rule:evenodd; clip-rule:evenodd"
viewBox="0 0 152280 25746"
 xmlns:xlink="http://www.w3.org/1999/xlink">
 <defs>
  <style type="text/css">
   <![CDATA[
    .fil0 {fill:#00A0E3;fill-rule:nonzero}
    .fil1 {fill:#004263;fill-rule:nonzero}
    .fil2 {fill:url(#id0);fill-rule:nonzero}
   ]]>
  </style>
  <linearGradient id="id0" gradientUnits="userSpaceOnUse" x1="116766" y1="9827.16" x2="147438" y2="9827.16">
   <stop offset="0" style="stop-color:#00A0E3"/>
   <stop offset="1" style="stop-color:#004263"/>
  </linearGradient>
 </defs>
 <g id="Ebene_x0020_1">
  <metadata id="CorelCorpID_0Corel-Layer"/>
  <path class="fil0" d="M67776 23216c-2487,0 -4746,-989 -6386,-2589 -1657,-1615 -2681,-3845 -2681,-6307 0,-2461 1025,-4691 2681,-6307 1640,-1599 3899,-2589 6386,-2589l3446 0c2487,0 4746,989 6386,2589 1657,1615 2681,3845 2681,6307 0,2461 -1025,4691 -2681,6307 -1640,1599 -3899,2589 -6386,2589l-3446 0zm-3363 -5696c855,833 2043,1349 3363,1349l3446 0c1320,0 2509,-516 3363,-1349 838,-817 1357,-1948 1357,-3199 0,-1251 -519,-2382 -1357,-3199 -855,-833 -2043,-1349 -3363,-1349l-3446 0c-1320,0 -2509,516 -3363,1349 -838,817 -1357,1948 -1357,3199 0,1251 519,2382 1357,3199z"/>
  <path class="fil0" d="M99505 5426c1200,0 2174,973 2174,2174 0,1200 -973,2174 -2174,2174l-11460 0c-368,0 -695,139 -926,364 -214,209 -347,500 -347,822 0,322 133,613 347,823 231,225 558,364 926,364l9512 0c1536,0 2932,613 3949,1604 1033,1007 1672,2397 1672,3930 0,1533 -639,2923 -1672,3930 -1017,991 -2413,1604 -3949,1604l0 -8 -12880 0c-1196,0 -2165,-969 -2165,-2165 0,-1196 969,-2165 2165,-2165l12880 0 0 -8c368,0 695,-139 926,-364 214,-209 347,-500 347,-822 0,-323 -133,-614 -347,-822 -231,-225 -558,-364 -926,-364l-9512 0c-1535,0 -2932,-613 -3949,-1604 -1033,-1007 -1672,-2397 -1672,-3930 0,-1533 639,-2923 1672,-3930 1017,-991 2413,-1604 3949,-1604l11460 0z"/>
  <path class="fil1" d="M14367 5453c708,0 1282,574 1282,1282 0,708 -574,1282 -1282,1282l-11802 0 0 5021 9789 0c708,0 1282,574 1282,1282 0,708 -574,1282 -1282,1282l-9789 0 0 6303c0,708 -574,1282 -1282,1282 -708,0 -1282,-574 -1282,-1282l0 -7586 0 -7586c0,-708 574,-1282 1282,-1282l13084 0z"/>
  <path class="fil1" d="M15750 22598c-382,595 -1173,767 -1768,386 -595,-382 -767,-1173 -386,-1768l2950 -4603c64,-175 166,-332 296,-462l6478 -10107c382,-595 1173,-767 1768,-386 168,108 302,248 399,407l6464 10085c130,130 232,287 297,463l2950 4602c382,595 209,1386 -386,1768 -595,382 -1386,209 -1768,-386l-2736 -4268 -11824 0 -2736 4268zm12919 -6827l-4272 -6664 -4272 6664 8543 0z"/>
  <path class="fil1" d="M39359 23189c-708,0 -1282,-574 -1282,-1282l0 -7585 0 -7586c0,-708 574,-1282 1282,-1282l9609 0 0 0 0 0c1418,0 2706,564 3642,1477 945,922 1530,2194 1530,3599 0,1196 -424,2296 -1134,3166 405,225 776,502 1104,821 945,922 1530,2194 1530,3599 0,1404 -585,2677 -1530,3599 -935,912 -2224,1477 -3642,1477l0 0 -11109 0zm1282 -2565l9826 0 0 0c730,0 1387,-285 1859,-745 462,-451 748,-1075 748,-1765 0,-690 -286,-1314 -748,-1765 -471,-459 -1125,-743 -1852,-745l-7 0 -9826 0 0 5021zm0 -7585l8305 0 22 0c730,0 1387,-285 1859,-745 462,-451 748,-1075 748,-1765 0,-690 -286,-1315 -748,-1765 -472,-460 -1129,-745 -1859,-745l-8327 0 0 5021z"/>
  <path class="fil2" d="M143256 4596c-339,0 -614,275 -614,615 0,339 275,615 614,615 340,0 615,-275 615,-615 0,-340 -275,-615 -615,-615zm-11286 713c-219,0 -396,177 -396,396 0,218 177,396 396,396 219,0 396,-178 396,-396 0,-219 -177,-396 -396,-396zm-1263 6085c-219,0 -396,177 -396,396 0,218 177,396 396,396 219,0 396,-177 396,-396 0,-219 -177,-396 -396,-396zm1980 -3261c-340,0 -615,275 -615,615 0,339 275,614 615,614 339,0 614,-275 614,-614 0,-340 -275,-615 -614,-615zm-7160 6296c-223,0 -403,181 -403,403 0,223 180,403 403,403 223,0 403,-180 403,-403 0,-223 -181,-403 -403,-403zm-3218 5874c-339,0 -614,275 -614,614 0,340 275,615 614,615 339,0 615,-275 615,-615 0,-339 -275,-614 -615,-614zm-3032 -3042c-339,0 -615,275 -615,615 0,339 275,614 615,614 340,0 615,-275 615,-614 0,-339 -275,-615 -615,-615zm21741 -9758c-339,0 -615,275 -615,615 0,339 275,614 615,614 339,0 615,-275 615,-614 0,-340 -275,-615 -615,-615zm5205 3823c-339,0 -614,275 -614,614 0,339 275,614 614,614 340,0 615,-275 615,-614 0,-339 -275,-614 -615,-614zm-3099 6167c-339,0 -614,275 -614,614 0,339 275,615 614,615 339,0 614,-275 614,-615 0,-339 -275,-614 -614,-614zm4388 2954c-339,0 -615,275 -615,614 0,339 275,615 615,615 339,0 614,-275 614,-615 0,-340 -275,-614 -614,-614zm1955 -5778c-339,0 -614,275 -614,614 0,339 275,615 614,615 339,0 614,-275 614,-615 0,-339 -275,-614 -614,-614zm-5366 9234c-339,0 -614,275 -614,614 0,340 275,615 614,615 340,0 615,-275 615,-615 0,-339 -275,-614 -615,-614zm-4766 -23288c-339,0 -614,275 -614,615 0,339 275,614 614,614 340,0 615,-275 615,-614 0,-340 -275,-615 -615,-615zm2369 241c-210,0 -380,170 -380,380 0,210 170,380 380,380 210,0 380,-170 380,-380 0,-210 -170,-380 -380,-380zm4624 3747c-339,0 -614,275 -614,615 0,340 275,615 614,615 340,0 615,-275 615,-615 0,-340 -275,-615 -615,-615zm-2819 3087c-240,0 -434,195 -434,435 0,240 195,434 434,434 240,0 435,-194 435,-434 0,-240 -195,-435 -435,-435zm5786 3642c-339,0 -614,275 -614,615 0,339 275,614 614,614 340,0 615,-275 615,-614 0,-339 -275,-615 -615,-615zm-3099 6167c-340,0 -615,275 -615,615 0,340 275,615 615,615 339,0 614,-275 614,-615 0,-339 -275,-615 -614,-615zm3640 3211c-202,0 -365,164 -365,365 0,202 164,365 365,365 201,0 365,-164 365,-365 0,-201 -163,-365 -365,-365zm-3297 3411c-223,0 -403,181 -403,403 0,223 180,403 403,403 223,0 403,-180 403,-403 0,-223 -181,-403 -403,-403zm5345 -9227c-219,0 -396,177 -396,396 0,218 177,396 396,396 219,0 396,-178 396,-396 0,-219 -177,-396 -396,-396zm-13650 7238l801 0c93,0 176,41 232,106l1980 1964 1664 5c138,-529 618,-919 1190,-919 679,0 1229,550 1229,1229 0,679 -550,1229 -1229,1229 -575,0 -1057,-394 -1192,-927l-1776 -5c-83,4 -166,-26 -229,-89l-1995 -1979 -676 0c-118,267 -385,453 -696,453l-439 0 -4028 0 -16761 0c-332,0 -618,-132 -833,-384 -216,-252 -302,-555 -251,-882l1476 -9453 7 0 410 -2653c61,-397 311,-708 686,-854 375,-146 769,-86 1083,165l4183 3342 39 0 410 -2653c61,-397 311,-708 685,-854 375,-146 769,-86 1083,165l4183 3342 97 0 1029 -8098c70,-551 533,-959 1088,-959l3278 0c310,0 578,186 696,453l607 0 2015 -2010c-113,-186 -178,-404 -178,-638 0,-679 550,-1229 1229,-1229 679,0 1229,550 1229,1229 0,679 -550,1229 -1229,1229 -223,0 -433,-59 -613,-163l-2095 2089c-56,65 -140,107 -233,107l-732 0c-118,267 -385,453 -696,453 -485,0 -970,0 -1456,0 -420,0 -761,340 -761,760 0,420 341,761 761,761l1884 0c311,0 578,186 696,453l803 0 1928 -1926c60,-60 138,-89 216,-89l0 -1 3027 0c137,-530 618,-922 1191,-922 679,0 1229,550 1229,1229 0,679 -550,1229 -1229,1229 -573,0 -1054,-392 -1191,-922l-2901 0 -1911 1909c-56,65 -140,107 -233,107l-929 0c-118,267 -385,453 -696,453l-718 0c-420,0 -761,341 -761,761 0,420 341,761 761,761l1147 0c311,0 578,186 696,453l934 0 1318 0 1197 -1202c-114,-187 -181,-185 -181,-642 0,-457 551,-1229 1229,-1229 679,0 1229,550 1229,1229 0,679 -779,1229 -1229,1229 -450,0 -429,-58 -608,-161l-1277 1283c-56,66 -140,108 -233,108l-1445 0 -934 0c-118,267 -385,453 -696,453l-3564 0c-420,0 -761,341 -761,761 0,420 341,761 761,761l3993 0 0 0c311,0 578,186 696,453l4354 0 1285 -1282c60,-59 138,-89 216,-89l0 -1 2229 0c136,-530 565,-922 1190,-922 626,0 1229,550 1229,1229 0,679 -604,1229 -1229,1229 -626,0 -1054,-392 -1190,-922l-2103 0 -1268 1265c-56,65 -140,107 -233,107l-4480 0c-116,263 -377,448 -681,453l-9173 0c-420,0 -761,341 -761,760 0,420 341,761 761,761 3196,0 6392,0 9587,0 311,0 578,186 696,453l2539 0 1232 0 981 -981c60,-60 138,-90 217,-90l0 0 5931 0c137,-530 565,-922 1190,-922 626,0 1229,550 1229,1229 0,679 -604,1229 -1229,1229 -626,0 -1054,-392 -1190,-922l-5804 0 -719 719 741 742c184,-110 174,-173 628,-173 454,0 1229,550 1229,1229 0,679 -550,1229 -1229,1229 -679,0 -1229,-776 -1229,-1229 0,-453 61,-439 169,-622l-824 -824 -1323 0 -2539 0c-118,267 -385,453 -696,453l-416 0 -14999 0c-420,0 -761,341 -761,761 0,420 341,761 761,761 5870,0 9974,0 15844,0 311,0 578,186 696,453l941 0c93,0 176,41 232,106l1574 1558 5769 0c136,-530 565,-922 1190,-922 626,0 1229,550 1229,1229 0,679 -603,1229 -1229,1229 -626,0 -1056,-393 -1191,-924l-5881 0c-82,4 -166,-26 -229,-89l-1589 -1573 -816 0c-118,267 -385,453 -696,453l-416 0 -12395 0c-420,0 -761,341 -761,761 0,420 341,761 761,761 4413,0 8827,0 13240,0 311,0 578,186 696,453z"/>
 </g>
</svg>
